<svg width="419" height="220" viewBox="0 0 419 220" fill="none" xmlns="http://www.w3.org/2000/svg">
    <rect x="1" y="1" width="416.667" height="218" fill="#EDF0F7"/>
    <path fill-rule="evenodd" clip-rule="evenodd" d="M199 103.167C199 100.865 200.865 99 203.167 99C205.468 99 207.333 100.865 207.333 103.167C207.333 105.468 205.468 107.333 203.167 107.333C200.865 107.333 199 105.468 199 103.167ZM203.167 102.333C202.706 102.333 202.333 102.706 202.333 103.167C202.333 103.627 202.706 104 203.167 104C203.627 104 204 103.627 204 103.167C204 102.706 203.627 102.333 203.167 102.333Z" fill="#2D3648"/>
    <path fill-rule="evenodd" clip-rule="evenodd" d="M192.333 97.3333C192.333 94.5719 194.572 92.3333 197.333 92.3333H220.667C223.428 92.3333 225.667 94.5719 225.667 97.3333V120.667C225.667 123.428 223.428 125.667 220.667 125.667H197.333C194.572 125.667 192.333 123.428 192.333 120.667V97.3333ZM197.333 95.6666C196.413 95.6666 195.667 96.4128 195.667 97.3333V120.667C195.667 121.381 196.117 121.991 196.749 122.228L214.488 104.488C215.139 103.837 216.194 103.837 216.845 104.488L222.333 109.976V97.3333C222.333 96.4128 221.587 95.6666 220.667 95.6666H197.333ZM222.333 114.69L215.667 108.024L201.357 122.333H220.667C221.587 122.333 222.333 121.587 222.333 120.667V114.69Z" fill="#2D3648"/>
    <rect x="1" y="1" width="416.667" height="218" stroke="#2D3648" stroke-width="2"/>
</svg>
