<svg width="1512" height="460" viewBox="0 0 1512 460" fill="none" xmlns="http://www.w3.org/2000/svg">
    <rect width="1512" height="460" fill="#717D96"/>
    <rect x="105" y="121" width="1302" height="218" rx="7" fill="white"/>
    <path d="M744.666 224.818C744.555 223.883 744.106 223.156 743.318 222.639C742.53 222.122 741.564 221.864 740.419 221.864C739.582 221.864 738.849 221.999 738.222 222.27C737.6 222.541 737.114 222.913 736.763 223.387C736.418 223.861 736.246 224.4 736.246 225.003C736.246 225.508 736.366 225.942 736.606 226.305C736.852 226.662 737.166 226.96 737.548 227.2C737.929 227.434 738.329 227.628 738.748 227.782C739.166 227.93 739.551 228.05 739.902 228.142L741.822 228.659C742.315 228.788 742.863 228.967 743.466 229.195C744.075 229.422 744.657 229.733 745.211 230.127C745.771 230.515 746.233 231.013 746.596 231.623C746.959 232.232 747.141 232.98 747.141 233.866C747.141 234.888 746.873 235.812 746.337 236.636C745.808 237.461 745.032 238.117 744.011 238.603C742.995 239.089 741.761 239.332 740.308 239.332C738.954 239.332 737.781 239.114 736.79 238.677C735.806 238.24 735.03 237.63 734.464 236.849C733.904 236.067 733.587 235.159 733.513 234.125H735.876C735.938 234.839 736.178 235.43 736.597 235.898C737.021 236.359 737.557 236.704 738.203 236.932C738.856 237.153 739.557 237.264 740.308 237.264C741.182 237.264 741.967 237.123 742.663 236.839C743.358 236.55 743.909 236.15 744.315 235.639C744.722 235.122 744.925 234.519 744.925 233.83C744.925 233.202 744.749 232.691 744.398 232.297C744.048 231.903 743.586 231.583 743.013 231.337C742.441 231.09 741.822 230.875 741.158 230.69L738.831 230.026C737.354 229.601 736.184 228.995 735.322 228.207C734.461 227.419 734.03 226.388 734.03 225.114C734.03 224.055 734.316 223.132 734.888 222.344C735.467 221.55 736.243 220.934 737.215 220.497C738.194 220.054 739.286 219.832 740.493 219.832C741.712 219.832 742.795 220.051 743.743 220.488C744.691 220.919 745.442 221.51 745.996 222.261C746.556 223.012 746.851 223.864 746.882 224.818H744.666ZM752.529 220.091V239H750.35V220.091H752.529ZM762.021 239.295C760.741 239.295 759.618 238.991 758.651 238.381C757.691 237.772 756.94 236.92 756.398 235.824C755.863 234.728 755.595 233.448 755.595 231.983C755.595 230.506 755.863 229.216 756.398 228.114C756.94 227.013 757.691 226.157 758.651 225.548C759.618 224.938 760.741 224.634 762.021 224.634C763.301 224.634 764.422 224.938 765.382 225.548C766.348 226.157 767.099 227.013 767.635 228.114C768.176 229.216 768.447 230.506 768.447 231.983C768.447 233.448 768.176 234.728 767.635 235.824C767.099 236.92 766.348 237.772 765.382 238.381C764.422 238.991 763.301 239.295 762.021 239.295ZM762.021 237.338C762.994 237.338 763.794 237.089 764.422 236.59C765.05 236.092 765.514 235.436 765.816 234.624C766.118 233.811 766.268 232.931 766.268 231.983C766.268 231.035 766.118 230.152 765.816 229.333C765.514 228.514 765.05 227.853 764.422 227.348C763.794 226.843 762.994 226.591 762.021 226.591C761.049 226.591 760.248 226.843 759.621 227.348C758.993 227.853 758.528 228.514 758.226 229.333C757.925 230.152 757.774 231.035 757.774 231.983C757.774 232.931 757.925 233.811 758.226 234.624C758.528 235.436 758.993 236.092 759.621 236.59C760.248 237.089 761.049 237.338 762.021 237.338ZM777.681 224.818V226.665H770.332V224.818H777.681ZM772.474 221.42H774.653V234.938C774.653 235.553 774.742 236.015 774.92 236.322C775.105 236.624 775.339 236.827 775.622 236.932C775.911 237.03 776.216 237.08 776.536 237.08C776.776 237.08 776.973 237.067 777.127 237.043C777.281 237.012 777.404 236.987 777.496 236.969L777.94 238.926C777.792 238.982 777.586 239.037 777.321 239.092C777.056 239.154 776.721 239.185 776.315 239.185C775.699 239.185 775.096 239.052 774.505 238.788C773.92 238.523 773.434 238.12 773.046 237.578C772.665 237.036 772.474 236.353 772.474 235.528V221.42Z" fill="#A0ABC0"/>
    <rect x="105" y="121" width="1302" height="218" rx="7" stroke="#CBD2E0" stroke-width="2" stroke-dasharray="12 6"/>
</svg>
